Group:- HKRG
Uploader:-Abhinav4u

Complete name                    : Resident Evil Retribution 1080p BD-Rip Dual Audio [Hindi-Eng]~Abhinav4u~ {HKRG}.mkv
Format                           : Matroska
File size                        : 2.18 GiB
Duration                         : 1h 35mn
Overall bit rate                 : 3 271 Kbps
Movie name                       : Resident Evil Retribution 1080p BD-Rip Dual Audio [Hindi-Eng]~Abhinav4u~ {HKRG}

Video Info:-
Format/Info                      : Advanced Video Codec
Format profile                   : High@L4.1
Width                            : 1 920 pixels
Height                           : 800 pixels
Frame rate                       : 23.976 fps
Stream size                      : 1.74 GiB

Audio #1:-
Format/Info                      : Advanced Audio Codec
Bit rate mode                    : Variable
Bit rate                         : 438 Kbps
Maximum bit rate                 : 499 Kbps
Channel(s)                       : 6 channels
Channel positions                : Front: L C R, Side: L R, LFE
Stream size                      : 299 MiB 
Language                         : English

Audio #2:-
Format                           : AC-3
Bit rate                         : 224 Kbps
Channel(s)                       : 2 channels
Stream size                      : 153 MiB (7%)
Title                            : ~Abhinav4u~ {HKRG}
Language                         : Hindi



Hindi Audio Credit:-Prisak(Thanks)
Enjoy the Movie..